<svg width="560" height="92" viewBox="0 0 560 92" fill="none" xmlns="http://www.w3.org/2000/svg">
<path d="M46.76 90L28.072 56.08H22.824V90H0.936V0.143997H37.672C44.7547 0.143997 50.7707 1.38133 55.72 3.856C60.7547 6.33066 64.5093 9.74399 66.984 14.096C69.4587 18.3627 70.696 23.1413 70.696 28.432C70.696 34.4053 68.9893 39.7387 65.576 44.432C62.248 49.1253 57.2987 52.4533 50.728 54.416L71.464 90H46.76ZM22.824 40.592H36.392C40.4027 40.592 43.3893 39.6107 45.352 37.648C47.4 35.6853 48.424 32.912 48.424 29.328C48.424 25.9147 47.4 23.2267 45.352 21.264C43.3893 19.3013 40.4027 18.32 36.392 18.32H22.824V40.592ZM116.948 91.024C109.951 91.024 103.636 89.5307 98.004 86.544C92.4573 83.5573 88.0627 79.2907 84.82 73.744C81.6627 68.1973 80.084 61.712 80.084 54.288C80.084 46.9493 81.7053 40.5067 84.948 34.96C88.1907 29.328 92.628 25.0187 98.26 22.032C103.892 19.0453 110.207 17.552 117.204 17.552C124.201 17.552 130.516 19.0453 136.148 22.032C141.78 25.0187 146.217 29.328 149.46 34.96C152.703 40.5067 154.324 46.9493 154.324 54.288C154.324 61.6267 152.66 68.112 149.332 73.744C146.089 79.2907 141.609 83.5573 135.892 86.544C130.26 89.5307 123.945 91.024 116.948 91.024ZM116.948 72.08C121.129 72.08 124.671 70.544 127.572 67.472C130.559 64.4 132.052 60.0053 132.052 54.288C132.052 48.5707 130.601 44.176 127.7 41.104C124.884 38.032 121.385 36.496 117.204 36.496C112.937 36.496 109.396 38.032 106.58 41.104C103.764 44.0907 102.356 48.4853 102.356 54.288C102.356 60.0053 103.721 64.4 106.452 67.472C109.268 70.544 112.767 72.08 116.948 72.08ZM194.992 91.024C188.763 91.024 183.216 89.9573 178.352 87.824C173.488 85.6907 169.648 82.7893 166.832 79.12C164.016 75.3653 162.437 71.184 162.096 66.576H183.728C183.984 69.0507 185.136 71.056 187.184 72.592C189.232 74.128 191.749 74.896 194.736 74.896C197.467 74.896 199.557 74.384 201.008 73.36C202.544 72.2507 203.312 70.8427 203.312 69.136C203.312 67.088 202.245 65.5947 200.112 64.656C197.979 63.632 194.523 62.5227 189.744 61.328C184.624 60.1333 180.357 58.896 176.944 57.616C173.531 56.2507 170.587 54.16 168.112 51.344C165.637 48.4427 164.4 44.56 164.4 39.696C164.4 35.6 165.509 31.888 167.728 28.56C170.032 25.1467 173.36 22.4587 177.712 20.496C182.149 18.5333 187.397 17.552 193.456 17.552C202.416 17.552 209.456 19.7707 214.576 24.208C219.781 28.6453 222.768 34.5333 223.536 41.872H203.312C202.971 39.3973 201.861 37.4347 199.984 35.984C198.192 34.5333 195.803 33.808 192.816 33.808C190.256 33.808 188.293 34.32 186.928 35.344C185.563 36.2827 184.88 37.6053 184.88 39.312C184.88 41.36 185.947 42.896 188.08 43.92C190.299 44.944 193.712 45.968 198.32 46.992C203.611 48.3573 207.92 49.7227 211.248 51.088C214.576 52.368 217.477 54.5013 219.952 57.488C222.512 60.3893 223.835 64.3147 223.92 69.264C223.92 73.4453 222.725 77.2 220.336 80.528C218.032 83.7707 214.661 86.3307 210.224 88.208C205.872 90.0853 200.795 91.024 194.992 91.024ZM304.639 53.136C304.639 55.184 304.511 57.3173 304.255 59.536H254.719C255.06 63.9733 256.468 67.3867 258.943 69.776C261.503 72.08 264.618 73.232 268.287 73.232C273.748 73.232 277.546 70.928 279.679 66.32H302.975C301.78 71.0133 299.604 75.2373 296.447 78.992C293.375 82.7467 289.492 85.6907 284.799 87.824C280.106 89.9573 274.858 91.024 269.055 91.024C262.058 91.024 255.828 89.5307 250.367 86.544C244.906 83.5573 240.639 79.2907 237.567 73.744C234.495 68.1973 232.959 61.712 232.959 54.288C232.959 46.864 234.452 40.3787 237.439 34.832C240.511 29.2853 244.778 25.0187 250.239 22.032C255.7 19.0453 261.972 17.552 269.055 17.552C275.967 17.552 282.111 19.0027 287.487 21.904C292.863 24.8053 297.044 28.944 300.031 34.32C303.103 39.696 304.639 45.968 304.639 53.136ZM282.239 47.376C282.239 43.6213 280.959 40.6347 278.399 38.416C275.839 36.1973 272.639 35.088 268.799 35.088C265.13 35.088 262.015 36.1547 259.455 38.288C256.98 40.4213 255.444 43.4507 254.847 47.376H282.239ZM359.706 17.808C368.069 17.808 374.725 20.5387 379.674 26C384.709 31.376 387.226 38.8 387.226 48.272V90H365.466V51.216C365.466 46.4373 364.229 42.7253 361.754 40.08C359.279 37.4347 355.951 36.112 351.77 36.112C347.589 36.112 344.261 37.4347 341.786 40.08C339.311 42.7253 338.074 46.4373 338.074 51.216V90H316.186V18.576H338.074V28.048C340.293 24.8907 343.279 22.416 347.034 20.624C350.789 18.7467 355.013 17.808 359.706 17.808ZM398.084 54.16C398.084 46.8213 399.449 40.3787 402.18 34.832C404.996 29.2853 408.793 25.0187 413.572 22.032C418.351 19.0453 423.684 17.552 429.572 17.552C434.607 17.552 439.001 18.576 442.756 20.624C446.596 22.672 449.54 25.36 451.588 28.688V18.576H473.476V90H451.588V79.888C449.455 83.216 446.468 85.904 442.628 87.952C438.873 90 434.479 91.024 429.444 91.024C423.641 91.024 418.351 89.5307 413.572 86.544C408.793 83.472 404.996 79.1627 402.18 73.616C399.449 67.984 398.084 61.4987 398.084 54.16ZM451.588 54.288C451.588 48.8267 450.052 44.5173 446.98 41.36C443.993 38.2027 440.324 36.624 435.972 36.624C431.62 36.624 427.908 38.2027 424.836 41.36C421.849 44.432 420.356 48.6987 420.356 54.16C420.356 59.6213 421.849 63.9733 424.836 67.216C427.908 70.3733 431.62 71.952 435.972 71.952C440.324 71.952 443.993 70.3733 446.98 67.216C450.052 64.0587 451.588 59.7493 451.588 54.288ZM559.839 18.576V90H537.951V80.272C535.732 83.4293 532.703 85.9893 528.863 87.952C525.108 89.8293 520.927 90.768 516.319 90.768C510.858 90.768 506.036 89.5733 501.855 87.184C497.674 84.7093 494.431 81.168 492.127 76.56C489.823 71.952 488.671 66.5333 488.671 60.304V18.576H510.431V57.36C510.431 62.1387 511.668 65.8507 514.143 68.496C516.618 71.1413 519.946 72.464 524.127 72.464C528.394 72.464 531.764 71.1413 534.239 68.496C536.714 65.8507 537.951 62.1387 537.951 57.36V18.576H559.839Z" fill="#484848"/>
</svg>
